{
	"asset":{
		"generator":"Khronos glTF Blender I/O v3.5.30",
		"version":"2.0"
	},
	"scene":0,
	"scenes":[
		{
			"name":"Scene",
			"nodes":[
				0,
				1,
				2,
				3,
				4,
				5,
				6,
				7
			]
		}
	],
	"nodes":[
		{
			"mesh":0,
			"name":"5_bag_5_chopperbackpack_Mesh_1883.rip",
			"rotation":[
				0.7071068286895752,
				0,
				0,
				0.7071068286895752
			]
		},
		{
			"mesh":1,
			"name":"5_body_5_chopperbody_Mesh_1882.rip",
			"rotation":[
				0.7071068286895752,
				0,
				0,
				0.7071068286895752
			]
		},
		{
			"mesh":2,
			"name":"5_eyelashes_5_choppereyelashR_Mesh_1888.rip",
			"rotation":[
				0.7071068286895752,
				0,
				0,
				0.7071068286895752
			]
		},
		{
			"mesh":3,
			"name":"5_eyes_5_choppereyeR_Mesh_1879.rip",
			"rotation":[
				0.7071068286895752,
				0,
				0,
				0.7071068286895752
			]
		},
		{
			"mesh":4,
			"name":"5_hands_5_chopperhandR_Mesh_1885.rip",
			"rotation":[
				0.7071068286895752,
				0,
				0,
				0.7071068286895752
			]
		},
		{
			"mesh":5,
			"name":"5_head_5_chopperhead_Mesh_1887.rip",
			"rotation":[
				0.7071068286895752,
				0,
				0,
				0.7071068286895752
			]
		},
		{
			"mesh":6,
			"name":"5_metal_5_choppermetal_Mesh_1886.rip",
			"rotation":[
				0.7071068286895752,
				0,
				0,
				0.7071068286895752
			]
		},
		{
			"name":"metarig",
			"scale":[
				0.24113185703754425,
				0.24113185703754425,
				0.24113185703754425
			]
		}
	],
	"materials":[
		{
			"doubleSided":true,
			"name":"Mesh_1883.rip",
			"pbrMetallicRoughness":{
				"baseColorTexture":{
					"index":0
				},
				"metallicFactor":0,
				"roughnessFactor":0.6932139992713928
			}
		},
		{
			"doubleSided":true,
			"name":"Mesh_1882.rip",
			"pbrMetallicRoughness":{
				"baseColorTexture":{
					"index":1
				},
				"metallicFactor":0,
				"roughnessFactor":0.6932139992713928
			}
		},
		{
			"doubleSided":true,
			"name":"Mesh_1889.rip",
			"pbrMetallicRoughness":{
				"baseColorTexture":{
					"index":2
				},
				"metallicFactor":0,
				"roughnessFactor":0.6932139992713928
			}
		},
		{
			"doubleSided":true,
			"name":"Mesh_1880.rip",
			"pbrMetallicRoughness":{
				"baseColorTexture":{
					"index":3
				},
				"metallicFactor":0,
				"roughnessFactor":0.6932139992713928
			}
		},
		{
			"doubleSided":true,
			"name":"Mesh_1885.rip",
			"pbrMetallicRoughness":{
				"baseColorTexture":{
					"index":4
				},
				"metallicFactor":0,
				"roughnessFactor":0.6932139992713928
			}
		},
		{
			"doubleSided":true,
			"name":"Mesh_1887.rip",
			"pbrMetallicRoughness":{
				"baseColorTexture":{
					"index":5
				},
				"metallicFactor":0,
				"roughnessFactor":0.6932139992713928
			}
		},
		{
			"doubleSided":true,
			"name":"Mesh_1886.rip",
			"pbrMetallicRoughness":{
				"baseColorTexture":{
					"index":6
				},
				"metallicFactor":0,
				"roughnessFactor":0.6932139992713928
			}
		}
	],
	"meshes":[
		{
			"name":"5_bag_5_chopperbackpack_Mesh_1883.rip",
			"primitives":[
				{
					"attributes":{
						"POSITION":0,
						"TEXCOORD_0":1,
						"NORMAL":2
					},
					"indices":3,
					"material":0
				}
			]
		},
		{
			"name":"5_body_5_chopperbody_Mesh_1882.rip",
			"primitives":[
				{
					"attributes":{
						"POSITION":4,
						"TEXCOORD_0":5,
						"NORMAL":6
					},
					"indices":7,
					"material":1
				}
			]
		},
		{
			"name":"5_eyelashes_5_choppereyelashR_Mesh_1888.rip",
			"primitives":[
				{
					"attributes":{
						"POSITION":8,
						"TEXCOORD_0":9,
						"NORMAL":10
					},
					"indices":11,
					"material":2
				}
			]
		},
		{
			"name":"5_eyes_5_choppereyeR_Mesh_1879.rip",
			"primitives":[
				{
					"attributes":{
						"POSITION":12,
						"TEXCOORD_0":13,
						"NORMAL":14
					},
					"indices":15,
					"material":3
				}
			]
		},
		{
			"name":"5_hands_5_chopperhandR_Mesh_1885.rip",
			"primitives":[
				{
					"attributes":{
						"POSITION":16,
						"TEXCOORD_0":17,
						"NORMAL":18
					},
					"indices":19,
					"material":4
				}
			]
		},
		{
			"name":"5_head_5_chopperhead_Mesh_1887.rip",
			"primitives":[
				{
					"attributes":{
						"POSITION":20,
						"TEXCOORD_0":21,
						"NORMAL":22
					},
					"indices":23,
					"material":5
				}
			]
		},
		{
			"name":"5_metal_5_choppermetal_Mesh_1886.rip",
			"primitives":[
				{
					"attributes":{
						"POSITION":24,
						"TEXCOORD_0":25,
						"NORMAL":26
					},
					"indices":27,
					"material":6
				}
			]
		}
	],
	"textures":[
		{
			"sampler":0,
			"source":0
		},
		{
			"sampler":0,
			"source":0
		},
		{
			"sampler":0,
			"source":1
		},
		{
			"sampler":0,
			"source":2
		},
		{
			"sampler":0,
			"source":0
		},
		{
			"sampler":0,
			"source":1
		},
		{
			"sampler":0,
			"source":0
		}
	],
	"images":[
		{
			"bufferView":4,
			"mimeType":"image/png",
			"name":"chopperbody"
		},
		{
			"bufferView":13,
			"mimeType":"image/png",
			"name":"chopperhead"
		},
		{
			"bufferView":18,
			"mimeType":"image/png",
			"name":"choppereye"
		}
	],
	"accessors":[
		{
			"bufferView":0,
			"componentType":5126,
			"count":388,
			"max":[
				0.1164809986948967,
				0.059147998690605164,
				-0.15429499745368958
			],
			"min":[
				-0.1164809986948967,
				-0.25040701031684875,
				-0.39675799012184143
			],
			"type":"VEC3"
		},
		{
			"bufferView":1,
			"componentType":5126,
			"count":388,
			"type":"VEC2"
		},
		{
			"bufferView":2,
			"componentType":5126,
			"count":388,
			"type":"VEC3"
		},
		{
			"bufferView":3,
			"componentType":5123,
			"count":1710,
			"type":"SCALAR"
		},
		{
			"bufferView":5,
			"componentType":5126,
			"count":3510,
			"max":[
				0.43338099122047424,
				0.32907700538635254,
				0.006517000030726194
			],
			"min":[
				-0.43338099122047424,
				-0.36047598719596863,
				-0.9325010180473328
			],
			"type":"VEC3"
		},
		{
			"bufferView":6,
			"componentType":5126,
			"count":3510,
			"type":"VEC2"
		},
		{
			"bufferView":7,
			"componentType":5126,
			"count":3510,
			"type":"VEC3"
		},
		{
			"bufferView":8,
			"componentType":5123,
			"count":14778,
			"type":"SCALAR"
		},
		{
			"bufferView":9,
			"componentType":5126,
			"count":48,
			"max":[
				0.12712399661540985,
				0.12191800028085709,
				-0.5370500087738037
			],
			"min":[
				-0.12712399661540985,
				0.09100999683141708,
				-0.5618659853935242
			],
			"type":"VEC3"
		},
		{
			"bufferView":10,
			"componentType":5126,
			"count":48,
			"type":"VEC2"
		},
		{
			"bufferView":11,
			"componentType":5126,
			"count":48,
			"type":"VEC3"
		},
		{
			"bufferView":12,
			"componentType":5123,
			"count":108,
			"type":"SCALAR"
		},
		{
			"bufferView":14,
			"componentType":5126,
			"count":42,
			"max":[
				0.12652899324893951,
				0.15873900055885315,
				-0.46595901250839233
			],
			"min":[
				-0.12652899324893951,
				0.12842899560928345,
				-0.5440729856491089
			],
			"type":"VEC3"
		},
		{
			"bufferView":15,
			"componentType":5126,
			"count":42,
			"type":"VEC2"
		},
		{
			"bufferView":16,
			"componentType":5126,
			"count":42,
			"type":"VEC3"
		},
		{
			"bufferView":17,
			"componentType":5123,
			"count":120,
			"type":"SCALAR"
		},
		{
			"bufferView":19,
			"componentType":5126,
			"count":378,
			"max":[
				0.3451310098171234,
				0.05623200163245201,
				-0.3529849946498871
			],
			"min":[
				-0.3451310098171234,
				-0.03925799950957298,
				-0.40604299306869507
			],
			"type":"VEC3"
		},
		{
			"bufferView":20,
			"componentType":5126,
			"count":378,
			"type":"VEC2"
		},
		{
			"bufferView":21,
			"componentType":5126,
			"count":378,
			"type":"VEC3"
		},
		{
			"bufferView":22,
			"componentType":5123,
			"count":1380,
			"type":"SCALAR"
		},
		{
			"bufferView":23,
			"componentType":5126,
			"count":1488,
			"max":[
				0.17722299695014954,
				0.20318399369716644,
				-0.3905229866504669
			],
			"min":[
				-0.17722299695014954,
				-0.21563099324703217,
				-0.745203971862793
			],
			"type":"VEC3"
		},
		{
			"bufferView":24,
			"componentType":5126,
			"count":1488,
			"type":"VEC2"
		},
		{
			"bufferView":25,
			"componentType":5126,
			"count":1488,
			"type":"VEC3"
		},
		{
			"bufferView":26,
			"componentType":5123,
			"count":6936,
			"type":"SCALAR"
		},
		{
			"bufferView":27,
			"componentType":5126,
			"count":148,
			"max":[
				0.30783799290657043,
				0.1026730015873909,
				-0.2976149916648865
			],
			"min":[
				0.15894700586795807,
				-0.048190001398324966,
				-0.6073200106620789
			],
			"type":"VEC3"
		},
		{
			"bufferView":28,
			"componentType":5126,
			"count":148,
			"type":"VEC2"
		},
		{
			"bufferView":29,
			"componentType":5126,
			"count":148,
			"type":"VEC3"
		},
		{
			"bufferView":30,
			"componentType":5123,
			"count":660,
			"type":"SCALAR"
		}
	],
	"bufferViews":[
		{
			"buffer":0,
			"byteLength":4656,
			"byteOffset":0,
			"target":34962
		},
		{
			"buffer":0,
			"byteLength":3104,
			"byteOffset":4656,
			"target":34962
		},
		{
			"buffer":0,
			"byteLength":4656,
			"byteOffset":7760,
			"target":34962
		},
		{
			"buffer":0,
			"byteLength":3420,
			"byteOffset":12416,
			"target":34963
		},
		{
			"buffer":0,
			"byteLength":449941,
			"byteOffset":15836
		},
		{
			"buffer":0,
			"byteLength":42120,
			"byteOffset":465780,
			"target":34962
		},
		{
			"buffer":0,
			"byteLength":28080,
			"byteOffset":507900,
			"target":34962
		},
		{
			"buffer":0,
			"byteLength":42120,
			"byteOffset":535980,
			"target":34962
		},
		{
			"buffer":0,
			"byteLength":29556,
			"byteOffset":578100,
			"target":34963
		},
		{
			"buffer":0,
			"byteLength":576,
			"byteOffset":607656,
			"target":34962
		},
		{
			"buffer":0,
			"byteLength":384,
			"byteOffset":608232,
			"target":34962
		},
		{
			"buffer":0,
			"byteLength":576,
			"byteOffset":608616,
			"target":34962
		},
		{
			"buffer":0,
			"byteLength":216,
			"byteOffset":609192,
			"target":34963
		},
		{
			"buffer":0,
			"byteLength":57618,
			"byteOffset":609408
		},
		{
			"buffer":0,
			"byteLength":504,
			"byteOffset":667028,
			"target":34962
		},
		{
			"buffer":0,
			"byteLength":336,
			"byteOffset":667532,
			"target":34962
		},
		{
			"buffer":0,
			"byteLength":504,
			"byteOffset":667868,
			"target":34962
		},
		{
			"buffer":0,
			"byteLength":240,
			"byteOffset":668372,
			"target":34963
		},
		{
			"buffer":0,
			"byteLength":3818,
			"byteOffset":668612
		},
		{
			"buffer":0,
			"byteLength":4536,
			"byteOffset":672432,
			"target":34962
		},
		{
			"buffer":0,
			"byteLength":3024,
			"byteOffset":676968,
			"target":34962
		},
		{
			"buffer":0,
			"byteLength":4536,
			"byteOffset":679992,
			"target":34962
		},
		{
			"buffer":0,
			"byteLength":2760,
			"byteOffset":684528,
			"target":34963
		},
		{
			"buffer":0,
			"byteLength":17856,
			"byteOffset":687288,
			"target":34962
		},
		{
			"buffer":0,
			"byteLength":11904,
			"byteOffset":705144,
			"target":34962
		},
		{
			"buffer":0,
			"byteLength":17856,
			"byteOffset":717048,
			"target":34962
		},
		{
			"buffer":0,
			"byteLength":13872,
			"byteOffset":734904,
			"target":34963
		},
		{
			"buffer":0,
			"byteLength":1776,
			"byteOffset":748776,
			"target":34962
		},
		{
			"buffer":0,
			"byteLength":1184,
			"byteOffset":750552,
			"target":34962
		},
		{
			"buffer":0,
			"byteLength":1776,
			"byteOffset":751736,
			"target":34962
		},
		{
			"buffer":0,
			"byteLength":1320,
			"byteOffset":753512,
			"target":34963
		}
	],
	"samplers":[
		{
			"magFilter":9729,
			"minFilter":9987
		}
	],
	"buffers":[
		{
			"byteLength":754832,
			"uri":"data:application/octet-stream;base64,"
		}
	]
}
