{
	"asset":{
		"generator":"Khronos glTF Blender I/O v3.5.30",
		"version":"2.0"
	},
	"extensionsUsed":[
		"KHR_materials_unlit"
	],
	"scene":0,
	"scenes":[
		{
			"name":"Scene",
			"nodes":[
				0,
				1,
				3,
				4,
				5,
				6,
				7,
				8,
				9,
				10,
				11
			]
		}
	],
	"nodes":[
		{
			"name":"air balloons.obj.cleaner.materialmerger.gles"
		},
		{
			"name":"Object_4",
			"translation":[
				-2.0035502910614014,
				0,
				0
			]
		},
		{
			"name":"air balloons.obj.cleaner.materialmerger.gles.001"
		},
		{
			"children":[
				2
			],
			"name":"Sketchfab_model",
			"rotation":[
				-0.70710688829422,
				0,
				0,
				0.7071066498756409
			]
		},
		{
			"name":"Object_2",
			"rotation":[
				-0.70710688829422,
				0,
				0,
				0.7071066498756409
			],
			"translation":[
				-2.0035502910614014,
				0,
				0
			]
		},
		{
			"name":"Object_3",
			"rotation":[
				-0.70710688829422,
				0,
				0,
				0.7071066498756409
			],
			"translation":[
				-2.0035502910614014,
				0,
				0
			]
		},
		{
			"name":"Object_4.001",
			"rotation":[
				-0.70710688829422,
				0,
				0,
				0.7071066498756409
			],
			"translation":[
				-2.0035502910614014,
				0,
				0
			]
		},
		{
			"name":"Object_9",
			"rotation":[
				-0.70710688829422,
				0,
				0,
				0.7071066498756409
			],
			"translation":[
				-2.0035502910614014,
				0,
				0
			]
		},
		{
			"mesh":0,
			"name":"Object_11",
			"rotation":[
				-0.6871241927146912,
				-0.16691508889198303,
				0.16691498458385468,
				0.6871238946914673
			],
			"translation":[
				-0.887179970741272,
				0.49429211020469666,
				0
			]
		},
		{
			"name":"Object_16",
			"rotation":[
				-0.70710688829422,
				0,
				0,
				0.7071066498756409
			],
			"translation":[
				-2.0035502910614014,
				0,
				0
			]
		},
		{
			"mesh":1,
			"name":"banner",
			"rotation":[
				0.7071068286895752,
				0,
				0,
				0.7071068286895752
			]
		},
		{
			"mesh":2,
			"name":"Object_11.001",
			"rotation":[
				-0.6922487616539001,
				0.14419378340244293,
				-0.14419369399547577,
				0.692248523235321
			],
			"translation":[
				0.8760104179382324,
				0.49429211020469666,
				0
			]
		}
	],
	"animations":[
		{
			"channels":[
				{
					"sampler":0,
					"target":{
						"node":8,
						"path":"translation"
					}
				},
				{
					"sampler":1,
					"target":{
						"node":8,
						"path":"rotation"
					}
				},
				{
					"sampler":2,
					"target":{
						"node":8,
						"path":"scale"
					}
				}
			],
			"name":"Object_11.001Action.002",
			"samplers":[
				{
					"input":25,
					"interpolation":"LINEAR",
					"output":26
				},
				{
					"input":25,
					"interpolation":"LINEAR",
					"output":27
				},
				{
					"input":25,
					"interpolation":"LINEAR",
					"output":28
				}
			]
		},
		{
			"channels":[
				{
					"sampler":0,
					"target":{
						"node":10,
						"path":"weights"
					}
				}
			],
			"name":"KeyAction.001",
			"samplers":[
				{
					"input":25,
					"interpolation":"LINEAR",
					"output":29
				}
			]
		},
		{
			"channels":[
				{
					"sampler":0,
					"target":{
						"node":11,
						"path":"translation"
					}
				},
				{
					"sampler":1,
					"target":{
						"node":11,
						"path":"rotation"
					}
				},
				{
					"sampler":2,
					"target":{
						"node":11,
						"path":"scale"
					}
				}
			],
			"name":"Object_11.001Action",
			"samplers":[
				{
					"input":25,
					"interpolation":"LINEAR",
					"output":30
				},
				{
					"input":25,
					"interpolation":"LINEAR",
					"output":31
				},
				{
					"input":25,
					"interpolation":"LINEAR",
					"output":32
				}
			]
		}
	],
	"materials":[
		{
			"alphaMode":"BLEND",
			"doubleSided":true,
			"name":"gold.001",
			"pbrMetallicRoughness":{
				"baseColorFactor":[
					1,
					0.4052799940109253,
					0.029621999710798264,
					0.8999999761581421
				],
				"metallicFactor":0.9380567073822021,
				"roughnessFactor":0.20000000298023224
			}
		},
		{
			"doubleSided":true,
			"name":"Material.002",
			"pbrMetallicRoughness":{
				"baseColorFactor":[
					0.800000011920929,
					0.694441020488739,
					0.5249800086021423,
					1
				],
				"metallicFactor":0,
				"roughnessFactor":0.806350827217102
			}
		},
		{
			"doubleSided":true,
			"extensions":{
				"KHR_materials_unlit":{}
			},
			"name":"banner.001",
			"pbrMetallicRoughness":{
				"baseColorTexture":{
					"index":0,
					"texCoord":0
				},
				"metallicFactor":0,
				"roughnessFactor":0.9
			}
		},
		{
			"alphaMode":"BLEND",
			"doubleSided":true,
			"name":"gold.002",
			"pbrMetallicRoughness":{
				"baseColorFactor":[
					1,
					0.4052799940109253,
					0.029621999710798264,
					0.8999999761581421
				],
				"metallicFactor":0.9380567073822021,
				"roughnessFactor":0.20000000298023224
			}
		},
		{
			"doubleSided":true,
			"name":"Material.003",
			"pbrMetallicRoughness":{
				"baseColorFactor":[
					0.800000011920929,
					0.694441020488739,
					0.5249800086021423,
					1
				],
				"metallicFactor":0,
				"roughnessFactor":0.806350827217102
			}
		}
	],
	"meshes":[
		{
			"name":"Object_9.001",
			"primitives":[
				{
					"attributes":{
						"POSITION":0,
						"TEXCOORD_0":1,
						"NORMAL":2
					},
					"indices":3,
					"material":0
				},
				{
					"attributes":{
						"POSITION":4,
						"TEXCOORD_0":5,
						"NORMAL":6
					},
					"indices":7,
					"material":1
				}
			]
		},
		{
			"extras":{
				"targetNames":[
					"Cloth",
					"Cloth.001",
					"Cloth.002"
				]
			},
			"name":"banner",
			"primitives":[
				{
					"attributes":{
						"COLOR_0":8,
						"POSITION":9,
						"TEXCOORD_0":10,
						"NORMAL":11
					},
					"indices":12,
					"material":2,
					"targets":[
						{
							"POSITION":13,
							"NORMAL":14
						},
						{
							"POSITION":15,
							"NORMAL":16
						},
						{
							"POSITION":17,
							"NORMAL":18
						}
					]
				}
			],
			"weights":[
				1,
				0,
				0
			]
		},
		{
			"name":"Object_9.002",
			"primitives":[
				{
					"attributes":{
						"POSITION":19,
						"TEXCOORD_0":20,
						"NORMAL":21
					},
					"indices":3,
					"material":3
				},
				{
					"attributes":{
						"POSITION":22,
						"TEXCOORD_0":23,
						"NORMAL":24
					},
					"indices":7,
					"material":4
				}
			]
		}
	],
	"textures":[
		{
			"sampler":0,
			"source":0
		}
	],
	"images":[
		{
			"bufferView":13,
			"mimeType":"image/jpeg",
			"name":"banner"
		}
	],
	"accessors":[
		{
			"bufferView":0,
			"componentType":5126,
			"count":459,
			"max":[
				0.48147284984588623,
				0.3957471251487732,
				2.3326549530029297
			],
			"min":[
				-0.5604103803634644,
				-0.3876238465309143,
				1.3913609981536865
			],
			"type":"VEC3"
		},
		{
			"bufferView":1,
			"componentType":5126,
			"count":459,
			"type":"VEC2"
		},
		{
			"bufferView":2,
			"componentType":5126,
			"count":459,
			"type":"VEC3"
		},
		{
			"bufferView":3,
			"componentType":5123,
			"count":2040,
			"type":"SCALAR"
		},
		{
			"bufferView":4,
			"componentType":5126,
			"count":43,
			"max":[
				0.006693713366985321,
				0.03138725459575653,
				1.46013605594635
			],
			"min":[
				-0.06515515595674515,
				-0.019782617688179016,
				-0.023820042610168457
			],
			"type":"VEC3"
		},
		{
			"bufferView":5,
			"componentType":5126,
			"count":43,
			"type":"VEC2"
		},
		{
			"bufferView":6,
			"componentType":5126,
			"count":43,
			"type":"VEC3"
		},
		{
			"bufferView":7,
			"componentType":5123,
			"count":96,
			"type":"SCALAR"
		},
		{
			"bufferView":8,
			"componentType":5123,
			"count":1024,
			"normalized":true,
			"type":"VEC4"
		},
		{
			"bufferView":9,
			"componentType":5126,
			"count":1024,
			"max":[
				0.8819320201873779,
				0,
				0.5
			],
			"min":[
				-0.8819320201873779,
				0,
				-0.5
			],
			"type":"VEC3"
		},
		{
			"bufferView":10,
			"componentType":5126,
			"count":1024,
			"type":"VEC2"
		},
		{
			"bufferView":11,
			"componentType":5126,
			"count":1024,
			"type":"VEC3"
		},
		{
			"bufferView":12,
			"componentType":5123,
			"count":5766,
			"type":"SCALAR"
		},
		{
			"bufferView":14,
			"componentType":5126,
			"count":1024,
			"max":[
				0,
				0,
				0
			],
			"min":[
				0,
				0,
				0
			],
			"type":"VEC3"
		},
		{
			"bufferView":15,
			"componentType":5126,
			"count":1024,
			"type":"VEC3"
		},
		{
			"bufferView":16,
			"componentType":5126,
			"count":1024,
			"max":[
				0.045986831188201904,
				0.7009595632553101,
				0.08399838209152222
			],
			"min":[
				-0.044291019439697266,
				-0.027884069830179214,
				-0.33115071058273315
			],
			"type":"VEC3"
		},
		{
			"bufferView":17,
			"componentType":5126,
			"count":1024,
			"type":"VEC3"
		},
		{
			"bufferView":18,
			"componentType":5126,
			"count":1024,
			"max":[
				0.0306931734085083,
				0.2545772194862366,
				0.11375555396080017
			],
			"min":[
				-0.03244990110397339,
				-0.028078055009245872,
				-0.01648595929145813
			],
			"type":"VEC3"
		},
		{
			"bufferView":19,
			"componentType":5126,
			"count":1024,
			"type":"VEC3"
		},
		{
			"bufferView":20,
			"componentType":5126,
			"count":459,
			"max":[
				0.48147284984588623,
				0.3957471251487732,
				2.3326549530029297
			],
			"min":[
				-0.5604103803634644,
				-0.3876238465309143,
				1.3913609981536865
			],
			"type":"VEC3"
		},
		{
			"bufferView":21,
			"componentType":5126,
			"count":459,
			"type":"VEC2"
		},
		{
			"bufferView":22,
			"componentType":5126,
			"count":459,
			"type":"VEC3"
		},
		{
			"bufferView":23,
			"componentType":5126,
			"count":43,
			"max":[
				0.006693713366985321,
				0.03138725459575653,
				1.46013605594635
			],
			"min":[
				-0.06515515595674515,
				-0.019782617688179016,
				-0.023820042610168457
			],
			"type":"VEC3"
		},
		{
			"bufferView":24,
			"componentType":5126,
			"count":43,
			"type":"VEC2"
		},
		{
			"bufferView":25,
			"componentType":5126,
			"count":43,
			"type":"VEC3"
		},
		{
			"bufferView":26,
			"componentType":5126,
			"count":101,
			"max":[
				4.166666666666667
			],
			"min":[
				0
			],
			"type":"SCALAR"
		},
		{
			"bufferView":27,
			"componentType":5126,
			"count":101,
			"type":"VEC3"
		},
		{
			"bufferView":28,
			"componentType":5126,
			"count":101,
			"type":"VEC4"
		},
		{
			"bufferView":29,
			"componentType":5126,
			"count":101,
			"type":"VEC3"
		},
		{
			"bufferView":30,
			"componentType":5126,
			"count":303,
			"type":"SCALAR"
		},
		{
			"bufferView":31,
			"componentType":5126,
			"count":101,
			"type":"VEC3"
		},
		{
			"bufferView":32,
			"componentType":5126,
			"count":101,
			"type":"VEC4"
		},
		{
			"bufferView":33,
			"componentType":5126,
			"count":101,
			"type":"VEC3"
		}
	],
	"bufferViews":[
		{
			"buffer":0,
			"byteLength":5508,
			"byteOffset":0,
			"target":34962
		},
		{
			"buffer":0,
			"byteLength":3672,
			"byteOffset":5508,
			"target":34962
		},
		{
			"buffer":0,
			"byteLength":5508,
			"byteOffset":9180,
			"target":34962
		},
		{
			"buffer":0,
			"byteLength":4080,
			"byteOffset":14688,
			"target":34963
		},
		{
			"buffer":0,
			"byteLength":516,
			"byteOffset":18768,
			"target":34962
		},
		{
			"buffer":0,
			"byteLength":344,
			"byteOffset":19284,
			"target":34962
		},
		{
			"buffer":0,
			"byteLength":516,
			"byteOffset":19628,
			"target":34962
		},
		{
			"buffer":0,
			"byteLength":192,
			"byteOffset":20144,
			"target":34963
		},
		{
			"buffer":0,
			"byteLength":8192,
			"byteOffset":20336,
			"target":34962
		},
		{
			"buffer":0,
			"byteLength":12288,
			"byteOffset":28528,
			"target":34962
		},
		{
			"buffer":0,
			"byteLength":8192,
			"byteOffset":40816,
			"target":34962
		},
		{
			"buffer":0,
			"byteLength":12288,
			"byteOffset":49008,
			"target":34962
		},
		{
			"buffer":0,
			"byteLength":11532,
			"byteOffset":61296,
			"target":34963
		},
		{
			"buffer":0,
			"byteLength":60497,
			"byteOffset":72828
		},
		{
			"buffer":0,
			"byteLength":12288,
			"byteOffset":133328,
			"target":34962
		},
		{
			"buffer":0,
			"byteLength":12288,
			"byteOffset":145616,
			"target":34962
		},
		{
			"buffer":0,
			"byteLength":12288,
			"byteOffset":157904,
			"target":34962
		},
		{
			"buffer":0,
			"byteLength":12288,
			"byteOffset":170192,
			"target":34962
		},
		{
			"buffer":0,
			"byteLength":12288,
			"byteOffset":182480,
			"target":34962
		},
		{
			"buffer":0,
			"byteLength":12288,
			"byteOffset":194768,
			"target":34962
		},
		{
			"buffer":0,
			"byteLength":5508,
			"byteOffset":207056,
			"target":34962
		},
		{
			"buffer":0,
			"byteLength":3672,
			"byteOffset":212564,
			"target":34962
		},
		{
			"buffer":0,
			"byteLength":5508,
			"byteOffset":216236,
			"target":34962
		},
		{
			"buffer":0,
			"byteLength":516,
			"byteOffset":221744,
			"target":34962
		},
		{
			"buffer":0,
			"byteLength":344,
			"byteOffset":222260,
			"target":34962
		},
		{
			"buffer":0,
			"byteLength":516,
			"byteOffset":222604,
			"target":34962
		},
		{
			"buffer":0,
			"byteLength":404,
			"byteOffset":223120
		},
		{
			"buffer":0,
			"byteLength":1212,
			"byteOffset":223524
		},
		{
			"buffer":0,
			"byteLength":1616,
			"byteOffset":224736
		},
		{
			"buffer":0,
			"byteLength":1212,
			"byteOffset":226352
		},
		{
			"buffer":0,
			"byteLength":1212,
			"byteOffset":227564
		},
		{
			"buffer":0,
			"byteLength":1212,
			"byteOffset":228776
		},
		{
			"buffer":0,
			"byteLength":1616,
			"byteOffset":229988
		},
		{
			"buffer":0,
			"byteLength":1212,
			"byteOffset":231604
		}
	],
	"samplers":[
		{
			"magFilter":9729,
			"minFilter":9987,
			"wrapS":33071,
			"wrapT":33071
		}
	],
	"buffers":[
		{
			"byteLength":232816,
			"uri":"data:application/octet-stream;base64,"
		}
	]
}
